#!OML:ASF E:/inclinewalkrobotboard/Project1/Captureday1/Session1/subject1.ASF
:FULLY-SPECIFIED
:DEGREES
38
root 0 0 0 9.420804169564654 49.11596747662351 3.8600021105341398
lowerback -7.100035578828809 -4.342408405485633 -5.626381955412659
upperback -9.726744645243555 -5.229400657903527 8.047353640315626
thorax -5.561144813818956 -1.7050186768768125 11.770187268329252
lowerneck -2.5405493563596533 -9.337143534740518 -6.823000773518738
upperneck 34.85573996886228 -11.322671974000595 -2.670318324332909
head 12.400105879936934 -6.04619824909986 -1.137790554116753
rclavicle 1.0198918322413436E-14 9.360763741336801E-16
rhumerus 99.4476908757591 -19.361703536432852 -81.18690117647832
rradius 2.7805735893643835
rwrist 74.03288864260183
rhand 23.870853364016636 -18.51277606754337
rfingers 7.125019999999882
rthumb 48.26593498179082 -42.60648993194016
lclavicle -1.1790881508089456E-15 -3.320261196053216E-15
lhumerus 36.04624335050021 46.055422182528204 7.248431597707601
lradius 13.502890845287482
lwrist -45.609170327702124
lhand -10.433809253772127 26.836501342465382
lfingers 7.125019999999883
lthumb 15.630980445750295 57.481864778190484
rfemur -46.7690786778757 -8.44441287992268 3.3819474250723545
rtibia 37.536958016358
rfoot -86.11096925581114 6.000476057845514
rtoes 61.74105609662904
lfemur -59.11200458917641 8.385098234907328 -60.83149994035062
ltibia 69.18411591166303
lfoot 15.07620229384128 21.576560530695584
ltoes -18.483576043921374
39
root 0 0 0 9.418827884646532 49.118774380528876 3.8627057808436245
lowerback -7.0986476064349855 -4.342369953678844 -5.6277956278991255
upperback -9.725962457911015 -5.229339381900445 8.046584127081468
thorax -5.561166709903612 -1.7048318171538905 11.770109218642595
lowerneck -2.5407586596415204 -9.336935639309457 -6.822286338187146
upperneck 34.85608005169925 -11.322212521548371 -2.671674796611385
head 12.400163399698561 -6.046054598281796 -1.1382368369350713
rclavicle 1.0105086249217035E-14 9.267554215921421E-16
rhumerus 99.56882073641711 -19.36623276376954 -81.24086821030471
rradius 2.7760144815271914
rwrist 74.13327106586364
rhand 23.84497463795705 -18.507398063375774
rfingers 7.125019999999882
rthumb 48.24134394057451 -42.60600206106503
lclavicle -1.3108485288302408E-15 -3.3273268279564725E-15
lhumerus 36.17447265506054 46.09942399428798 7.258887764643944
lradius 13.4876052665281
lwrist -45.59370644574377
lhand -10.44831849979824 26.835645320286908
lfingers 7.125019999999883
lthumb 15.617325301197356 57.484320437754334
rfemur -46.79231977093204 -8.401916325261197 3.406664055837055
rtibia 37.48050287179951
rfoot -86.0376323321658 5.8943534232559855
rtoes 61.77116471078881
lfemur -59.00923885404039 8.367201005252625 -60.79044541846499
ltibia 69.1975264083901
lfoot 15.073847310546423 21.511287821466357
ltoes -18.536797757897247
40
root 0 0 0 9.42044336159515 49.12097129910724 3.860432941655281
lowerback -7.099507870229114 -4.34206568613806 -5.626437574826643
upperback -9.726413382279873 -5.228888432202492 8.04726599764868
thorax -5.56111202671515 -1.704743923612796 11.770094726126349
lowerneck -2.5401987508095054 -9.337026933302909 -6.822429863931104
upperneck 34.856429347077295 -11.322322071585882 -2.6716864266609752
head 12.400218754133913 -6.046096839786661 -1.1382547952769257
rclavicle 1.0133023386759E-14 9.301565448631482E-16
rhumerus 99.56168275943845 -19.36908881426629 -81.23083419357141
rradius 2.786662684846874
rwrist 74.0868046361958
rhand 23.8527898091058 -18.510205887303293
rfingers 7.125019999999882
rthumb 48.2485757543608 -42.60737858916791
lclavicle -1.2546237663565057E-15 -3.3321691909753902E-15
lhumerus 36.16610913055581 46.065242143843605 7.233362729456331
lradius 13.502337230753295
lwrist -45.58553224887298
lhand -10.42935185583446 26.839736976413064
lfingers 7.125019999999883
lthumb 15.635221039155313 57.48430972158533
rfemur -46.825544460441975 -8.371598270474124 3.435290342593248
rtibia 37.50902537889712
rfoot -86.06325182043342 5.957221003631581
rtoes 61.7683449568636
lfemur -59.022068008010606 8.3488770325109 -60.806707335304424
ltibia 69.17916982044423
lfoot 15.061862128258635 21.530065386710085
ltoes -18.535746065778703
41
root 0 0 0 9.420886527593513 49.12113656817361 3.8601883665156542
lowerback -7.099874354558349 -4.342095663347639 -5.626431469317406
upperback -9.726648989175036 -5.228952490884175 8.047402568065003
thorax -5.561147225739041 -1.7047876485212237 11.770250641458667
lowerneck -2.5400667565404396 -9.337079149927074 -6.822630063846573
upperneck 34.856162571972625 -11.322408053561052 -2.6713986218364125
head 12.400110504635425 -6.046127682384386 -1.1381538240467133
rclavicle 1.0150597427909191E-14 9.351170746462046E-16
rhumerus 99.56769231952288 -19.361732371730184 -81.24327323010326
rradius 2.7936107085365407
rwrist 74.06297939609232
rhand 23.85568145818801 -18.511448788704335
rfingers 7.125019999999882
rthumb 48.251247784352984 -42.60801262401179
lclavicle -1.2280772259718068E-15 -3.324744841627739E-15
lhumerus 36.19233794002482 46.05313015484941 7.2223989132521
lradius 13.505037905333452
lwrist -45.57307383834116
lhand -10.411729587830328 26.847783278106096
lfingers 7.125019999999883
lthumb 15.652114721003239 57.48947683551689
rfemur -46.78789336286356 -8.412190703045667 3.4006250544231165
rtibia 37.52873975796001
rfoot -86.08108425178678 5.989222330832163
rtoes 61.75813252442096
lfemur -59.03666646499382 8.344577691010851 -60.816339143642715
ltibia 69.16856888123208
lfoot 15.052193201627038 21.545584781975936
ltoes -18.525893770838145
